<svg width="392" height="269" viewBox="0 0 392 269" fill="none" xmlns="http://www.w3.org/2000/svg">
<path d="M390.491 9.99995V59.7686L368.356 47.8148L309.328 39.8457L249.733 56.9224L124.866 182.152H6.10352e-05V9.99994C6.10352e-05 4.4771 4.47723 -6.10352e-05 10.0001 -6.10352e-05H380.491C386.014 -6.10352e-05 390.491 4.4771 390.491 9.99995Z" fill="url(#paint0_linear_231_3644)"/>
<path d="M163.511 153.35C285.287 10.8144 349.319 43.2602 391.626 61.2066C314.016 -11.5174 198.386 71.7214 143.296 113.567C142.59 114.233 141.896 114.895 141.214 115.552C74.4375 167.01 19.2477 181.013 -9.15527e-05 181.582V265.827C44.8225 283.795 127.112 197.886 163.511 153.35Z" fill="url(#paint1_linear_231_3644)"/>
<defs>
<linearGradient id="paint0_linear_231_3644" x1="80.9747" y1="113.311" x2="267.472" y2="25.3014" gradientUnits="userSpaceOnUse">
<stop stop-color="#BD7EE7"/>
<stop offset="1" stop-color="#3121B8"/>
</linearGradient>
<linearGradient id="paint1_linear_231_3644" x1="267.472" y1="69.3055" x2="-28.6439" y2="268.262" gradientUnits="userSpaceOnUse">
<stop stop-color="#95F88A"/>
<stop offset="1" stop-color="#1DEB1C"/>
</linearGradient>
</defs>
</svg>
